<?xml version="1.0" standalone="no"?>
<!DOCTYPE svg PUBLIC "-//W3C//DTD SVG 20010904//EN"
 "http://www.w3.org/TR/2001/REC-SVG-20010904/DTD/svg10.dtd">
<svg version="1.0" xmlns="http://www.w3.org/2000/svg"
 width="260.000000pt" height="260.000000pt" viewBox="0 0 260.000000 260.000000"
 preserveAspectRatio="xMidYMid meet">
<metadata>
Created by potrace 1.14, written by Peter Selinger 2001-2017
</metadata>
<g transform="translate(0.000000,260.000000) scale(0.100000,-0.100000)"
fill="#000000" stroke="none">
<path d="M970 1463 c0 -176 -4 -324 -10 -344 -26 -93 -93 -142 -194 -143 -108
-1 -186 44 -221 127 l-15 37 -76 0 -76 0 6 -37 c26 -142 133 -236 303 -264
185 -30 356 52 415 199 22 55 23 70 26 395 l3 337 -80 0 -81 0 0 -307z"/>
<path d="M1350 1311 l0 -461 80 0 80 0 0 175 0 175 203 0 c225 -1 268 -7 306
-45 25 -25 26 -30 29 -165 l4 -140 79 0 79 0 0 135 c0 191 -25 237 -138 261
-54 11 -55 12 -27 19 52 13 101 43 133 79 85 98 61 290 -46 361 -86 56 -101
58 -454 63 l-328 4 0 -461z m650 294 c92 -54 90 -179 -4 -249 -25 -20 -44 -21
-257 -24 l-229 -4 0 152 0 151 228 -3 c207 -3 230 -5 262 -23z"/>
</g>
</svg>
