<?xml version="1.0" standalone="no"?>
<!DOCTYPE svg PUBLIC "-//W3C//DTD SVG 20010904//EN"
 "http://www.w3.org/TR/2001/REC-SVG-20010904/DTD/svg10.dtd">
<svg version="1.0" xmlns="http://www.w3.org/2000/svg"
 width="512.000000pt" height="512.000000pt" viewBox="0 0 512.000000 512.000000"
 preserveAspectRatio="xMidYMid meet">
<metadata>
Created by potrace 1.14, written by Peter Selinger 2001-2017
</metadata>
<g transform="translate(0.000000,512.000000) scale(0.100000,-0.100000)"
fill="#000000" stroke="none">
<path d="M2209 5110 c-27 -16 -369 -362 -370 -374 -8 -67 -11 -63 167 -238
l104 -103 -960 -960 c-686 -686 -962 -969 -969 -991 -5 -19 -5 -38 1 -50 6
-10 90 -99 187 -196 181 -183 212 -205 257 -180 11 6 71 62 134 125 63 64 116
114 118 112 2 -2 5 -324 5 -717 l2 -713 23 -51 c35 -76 102 -131 182 -149 19
-4 258 -7 531 -7 l498 0 -1 -269 c0 -289 4 -318 48 -338 34 -15 753 -15 787 0
45 20 48 45 48 335 l0 271 502 1 c343 0 515 3 544 11 66 18 124 68 158 136
l30 60 2 700 c1 385 2 709 3 720 0 14 32 -13 118 -98 133 -134 136 -137 176
-137 25 0 58 28 209 178 99 97 185 190 192 207 9 20 10 37 4 55 -6 14 -442
457 -969 985 l-960 960 132 130 c147 146 164 175 129 224 -29 41 -338 348
-363 362 -45 24 -78 3 -215 -134 l-133 -132 -133 133 c-108 108 -139 133 -167
137 -19 3 -42 1 -51 -5z"/>
</g>
</svg>
